# xmcd
#
# Track frame offsets:
#	150
#	15502
#	28915
#	39170
#	52772
#	63627
#	77327
#	87077
#	96292
#	109447
#	120017
#	131720
#	145122
#	156817
#	166117
#	178985
#	194840
#	205020
#	217537
#	228815
#
# Disc length: 3349 seconds
#
# Revision: 2
# Processed by: cddbd v1.5.2PL0 Copyright (c) Steve Scherf et al.
# Submitted via: audiograbber 1.83.01
#
DISCID=fb0d1314
DTITLE=Various Artist - The Sound Of Blue Grass
DYEAR=1999
DGENRE=Bluegrass
TTITLE0=Dolly Parton - My Tennessee Mountain Home (Live)
TTITLE1=Johnny Cash with Earl Scruggs Revue - Hey Porter
TTITLE2=John Denver - Steel Rails
TTITLE3=Charlie Daniels Band - Orange Blossom Special
TTITLE4=Ricky Skaggs - Uncle Pen
TTITLE5=Earl Scruggs - Duelling Banjos
TTITLE6=Jim and Jesse - Memphis, Tennessee
TTITLE7=Sonny James - Blue Moon Of Kentucky
TTITLE8=The Byrds - Pretty Polly
TTITLE9=Flatt and Scruggs - Foggy Mountain Breakdown
TTITLE10=Marty Robbins - That´s All Right
TTITLE11=Stanley Brothers - Little Glass Of Wine
TTITLE12=Bill Monroe and His Blue Grass Boys - Rocky Road Blues
TTITLE13=Flatt and Scruggs - The Ballad Of Jed Clampett
TTITLE14=Carl Smith - Rocky Top
TTITLE15=Lacy J. Dalton with Earl Scruggs - Love Gone Cold
TTITLE16=Poco - Rocky Mountain Breakdown
TTITLE17=Earl Scruggs with Tom T. Hall - Song Of The South
TTITLE18=Bill Monroe and His Blue Grass Boys - Bluegrass Special
TTITLE19=The O´Kanes - Bluegrass Blues
EXTD=
EXTT0=
EXTT1=
EXTT2=
EXTT3=
EXTT4=
EXTT5=
EXTT6=
EXTT7=
EXTT8=
EXTT9=
EXTT10=
EXTT11=
EXTT12=
EXTT13=
EXTT14=
EXTT15=
EXTT16=
EXTT17=
EXTT18=
EXTT19=
PLAYORDER=
